{
	"asset":{
		"version":"2.0",
		"generator":"Maxon Cinema 4D 2025.3.3 (#200000219)"
	},
	"scenes":[{
		"nodes":[0]
	}],
	"nodes":[{
		"name":"Cubo",
		"mesh":0
	}],
	"meshes":[{
		"name":"Cubo",
		"primitives":[{
			"attributes":{
				"POSITION":1,
				"NORMAL":2,
				"TEXCOORD_0":3
			},
			"indices":0
		}]
	}],
	"accessors":[{
		"bufferView":0,
		"type":"SCALAR",
		"componentType":5123,
		"count":384,
		"byteOffset":0,
		"min":[0],
		"max":[383]
	},
	{
		"bufferView":1,
		"type":"VEC3",
		"componentType":5126,
		"count":384,
		"byteOffset":0,
		"min":[-0.033000100404024127,
		-0.5283779501914978,
		-0.3224000930786133],
		"max":[0.07175757735967636,
		0.5775442123413086,
		0.3224000930786133]
	},
	{
		"bufferView":1,
		"type":"VEC3",
		"componentType":5126,
		"count":384,
		"byteOffset":12,
		"min":[-1.0,
		-0.9948482513427734,
		-1.0],
		"max":[1.0,
		0.9948482513427734,
		1.0]
	},
	{
		"bufferView":1,
		"type":"VEC2",
		"componentType":5126,
		"count":384,
		"byteOffset":24,
		"min":[0.0,
		0.0],
		"max":[1.0,
		1.0]
	}],
	"bufferViews":[{
		"buffer":0,
		"byteOffset":0,
		"byteLength":768,
		"target":34963
	},
	{
		"buffer":0,
		"byteOffset":768,
		"byteLength":12288,
		"target":34962,
		"byteStride":32
	}],
	"buffers":[{
		"uri":"data:application/octet-stream;base64,",
		"byteLength":13056
	}]
}