{
	"asset":{
		"version":"2.0",
		"generator":"Maxon Cinema 4D 2025.3.3 (#200000219)"
	},
	"scenes":[{
		"nodes":[0]
	}],
	"nodes":[{
		"name":"Cubo",
		"mesh":0,
		"translation":[0.0036323664244264366,
		-0.0019306216854602099,
		-0.00653886841610074],
		"rotation":[0.0,
		0.0,
		0.0,
		-1.0],
		"scale":[1.0,
		1.0,
		1.0]
	}],
	"meshes":[{
		"name":"Cubo",
		"primitives":[{
			"attributes":{
				"POSITION":1,
				"NORMAL":2,
				"TEXCOORD_0":3
			},
			"indices":0
		}]
	}],
	"accessors":[{
		"bufferView":0,
		"type":"SCALAR",
		"componentType":5123,
		"count":480,
		"byteOffset":0,
		"min":[0],
		"max":[479]
	},
	{
		"bufferView":1,
		"type":"VEC3",
		"componentType":5126,
		"count":480,
		"byteOffset":0,
		"min":[-0.0330766998231411,
		-0.39052996039390566,
		-0.10249844193458557],
		"max":[0.0330766998231411,
		0.6330782175064087,
		0.10113009810447693]
	},
	{
		"bufferView":1,
		"type":"VEC3",
		"componentType":5126,
		"count":480,
		"byteOffset":12,
		"min":[-1.0,
		-1.0,
		-0.9874131083488464],
		"max":[1.0,
		0.9999422430992127,
		0.9961597323417664]
	},
	{
		"bufferView":1,
		"type":"VEC2",
		"componentType":5126,
		"count":480,
		"byteOffset":24,
		"min":[0.0,
		0.0],
		"max":[1.0,
		1.0]
	}],
	"bufferViews":[{
		"buffer":0,
		"byteOffset":0,
		"byteLength":960,
		"target":34963
	},
	{
		"buffer":0,
		"byteOffset":960,
		"byteLength":15360,
		"target":34962,
		"byteStride":32
	}],
	"buffers":[{
		"uri":"data:application/octet-stream;base64,",
		"byteLength":16320
	}]
}